<svg width="29" height="28" viewBox="0 0 29 28" fill="none" xmlns="http://www.w3.org/2000/svg">
<path d="M14.5 7.29167C14.5 4.95833 16.25 2.625 18.5833 2.625C18.5833 4.95833 16.8333 7.29167 14.5 7.29167Z" fill="white"/>
<path d="M15.0833 8.85501C14.4826 8.85501 14.0178 8.6642 13.4983 8.45096C12.8405 8.18096 12.0952 7.875 10.8755 7.875C8.6927 7.875 5.16663 9.62436 5.16663 14.2911C5.16663 19.7185 8.78879 25.375 11.1221 25.375C11.9033 25.375 12.607 25.0683 13.2796 24.7752C13.895 24.5069 14.4846 24.25 15.0833 24.25C15.682 24.25 16.2715 24.5069 16.887 24.7752C17.5595 25.0683 18.2633 25.375 19.0445 25.375C20.6692 25.375 22.6168 22.6324 23.8333 19.1343C21.9425 18.3402 20.7276 16.471 20.7276 14.2917C20.7276 12.3912 21.7375 11.1298 23.25 10.2083C22.0833 8.45833 20.3489 7.875 19.1021 7.875C17.8825 7.875 17.1371 8.18096 16.4793 8.45096C15.9599 8.6642 15.684 8.85501 15.0833 8.85501Z" fill="white"/>
</svg>
