<svg width="25" height="24" viewBox="0 0 25 24" fill="none" xmlns="http://www.w3.org/2000/svg">
<path d="M12.5 6.25C12.5 4.25 14 2.25 16 2.25C16 4.25 14.5 6.25 12.5 6.25Z" fill="black"/>
<path d="M13 7.59001C12.4851 7.59001 12.0867 7.42646 11.6414 7.24368C11.0776 7.01225 10.4388 6.75 9.39334 6.75C7.52235 6.75 4.5 8.24945 4.5 12.2495C4.5 16.9016 7.60471 21.75 9.60471 21.75C10.2743 21.75 10.8775 21.4871 11.454 21.2359C11.9815 21.0059 12.4868 20.7857 13 20.7857C13.5132 20.7857 14.0185 21.0059 14.546 21.2359C15.1225 21.4871 15.7257 21.75 16.3953 21.75C17.7879 21.75 19.4573 19.3992 20.5 16.4008C18.8793 15.7202 17.838 14.118 17.838 12.25C17.838 10.621 18.7036 9.53982 20 8.75C19 7.25 17.5134 6.75 16.4447 6.75C15.3993 6.75 14.7604 7.01225 14.1966 7.24368C13.7514 7.42646 13.5149 7.59001 13 7.59001Z" fill="black"/>
</svg>
