<svg width="32" height="30" viewBox="0 0 32 30" fill="none" xmlns="http://www.w3.org/2000/svg">
<path fill-rule="evenodd" clip-rule="evenodd" d="M16.0377 3.25939C11.3775 3.25939 7.63934 6.94102 7.63934 11.4344C7.63934 12.2264 6.99199 12.8685 6.19345 12.8685C5.3949 12.8685 4.74756 12.2264 4.74756 11.4344C4.74756 5.31383 9.82421 0.391144 16.0377 0.391144C22.2511 0.391144 27.3278 5.31383 27.3278 11.4344C27.3278 12.2264 26.6804 12.8685 25.8819 12.8685C25.0833 12.8685 24.436 12.2264 24.436 11.4344C24.436 6.94102 20.6978 3.25939 16.0377 3.25939Z" fill="#22310F"/>
<path d="M27.8282 18.8754L28.2966 15.2177C28.4829 13.7629 28.576 13.0354 28.1587 12.5656C27.7413 12.0957 27.002 12.0957 25.5235 12.0957H6.55559C5.07705 12.0957 4.33778 12.0957 3.92041 12.5656C3.50304 13.0354 3.59619 13.7628 3.78249 15.2177L4.25088 18.8754C4.84202 23.4915 5.13758 25.7995 6.72191 27.184C8.30624 28.5685 10.6519 28.5685 15.3433 28.5685H16.7358C21.4271 28.5685 23.7728 28.5685 25.3572 27.184C26.9415 25.7996 27.2371 23.4915 27.8282 18.8754V18.8754Z" fill="#22310F"/>
<path fill-rule="evenodd" clip-rule="evenodd" d="M6.48839 11.056C6.51086 11.056 6.53339 11.056 6.556 11.056L25.5915 11.056C26.2725 11.056 26.8898 11.0559 27.3852 11.1249C27.9264 11.2002 28.5021 11.379 28.9456 11.8783C29.3891 12.3776 29.4954 12.9666 29.5026 13.5087C29.5092 14.0048 29.4313 14.6122 29.3454 15.2823L28.8593 19.0784C28.5716 21.3255 28.343 23.1107 27.9804 24.5019C27.6066 25.9363 27.0602 27.082 26.0505 27.9643C25.0409 28.8466 23.8262 29.2399 22.3444 29.427C20.9073 29.6084 19.0929 29.6084 16.8092 29.6083H15.2706C12.9869 29.6084 11.1726 29.6084 9.73552 29.427C8.25369 29.2399 7.039 28.8466 6.02934 27.9643C5.01969 27.082 4.47324 25.9363 4.09943 24.5019C3.73691 23.1107 3.50831 21.3254 3.22058 19.0784L2.74298 15.3488C2.74013 15.3266 2.73729 15.3044 2.73445 15.2823C2.64857 14.6122 2.57072 14.0048 2.57729 13.5087C2.58447 12.9666 2.69076 12.3776 3.13425 11.8783C3.57774 11.379 4.15345 11.2002 4.69472 11.1249C5.1901 11.0559 5.80737 11.056 6.48839 11.056ZM4.70764 13.2532C4.71036 13.2517 4.71543 13.249 4.72361 13.2454C4.75708 13.2308 4.83288 13.2055 4.9862 13.1842C5.31809 13.1379 5.78522 13.1355 6.556 13.1355H25.5239C26.2947 13.1355 26.7618 13.1379 27.0937 13.1842C27.247 13.2055 27.3228 13.2308 27.3563 13.2454C27.3644 13.249 27.3695 13.2517 27.3722 13.2532C27.3735 13.2561 27.3755 13.2614 27.3781 13.2699C27.3885 13.3047 27.4042 13.3825 27.4062 13.536C27.4106 13.8684 27.3542 14.3284 27.2571 15.0868L26.7887 18.7445C26.7859 18.7663 26.7831 18.788 26.7803 18.8097C26.4856 21.1105 26.2728 22.7449 25.9506 23.9815C25.6328 25.2012 25.2393 25.9018 24.6646 26.404C24.0899 26.9062 23.3396 27.2051 22.0797 27.3641C20.7903 27.5269 19.1094 27.5289 16.7362 27.5289H15.3437C12.9704 27.5289 11.2896 27.5269 10.0002 27.3641C8.74027 27.2051 7.98996 26.9062 7.41528 26.404C6.8406 25.9018 6.4471 25.2012 6.12927 23.9815C5.804 22.7333 5.59024 21.0797 5.2912 18.7445L4.8228 15.0868C4.72568 14.3284 4.66925 13.8684 4.67365 13.536C4.67568 13.3825 4.69138 13.3047 4.7018 13.2699C4.70435 13.2614 4.70641 13.2561 4.70764 13.2532ZM27.3746 13.2547C27.3746 13.2547 27.3747 13.2547 27.3746 13.2547V13.2547Z" fill="#22310F"/>
<g filter="url(#filter0_d_1_2464)">
<path fill-rule="evenodd" clip-rule="evenodd" d="M0.490967 11.618C0.490967 10.826 1.13831 10.1839 1.93686 10.1839H30.0632C30.8617 10.1839 31.5091 10.826 31.5091 11.618C31.5091 12.4101 30.8617 13.0521 30.0632 13.0521H1.93686C1.13831 13.0521 0.490967 12.4101 0.490967 11.618Z" fill="#22310F"/>
</g>
<defs>
<filter id="filter0_d_1_2464" x="0.181007" y="9.71896" width="31.638" height="3.48818" filterUnits="userSpaceOnUse" color-interpolation-filters="sRGB">
<feFlood flood-opacity="0" result="BackgroundImageFix"/>
<feColorMatrix in="SourceAlpha" type="matrix" values="0 0 0 0 0 0 0 0 0 0 0 0 0 0 0 0 0 0 127 0" result="hardAlpha"/>
<feOffset dy="-0.15498"/>
<feGaussianBlur stdDeviation="0.15498"/>
<feComposite in2="hardAlpha" operator="out"/>
<feColorMatrix type="matrix" values="0 0 0 0 0 0 0 0 0 0 0 0 0 0 0 0 0 0 0.14 0"/>
<feBlend mode="normal" in2="BackgroundImageFix" result="effect1_dropShadow_1_2464"/>
<feBlend mode="normal" in="SourceGraphic" in2="effect1_dropShadow_1_2464" result="shape"/>
</filter>
</defs>
</svg>
