<svg width="29" height="28" viewBox="0 0 29 28" fill="none" xmlns="http://www.w3.org/2000/svg">
<path d="M25.9394 11.7148H24.9997V11.6663H14.4997V16.333H21.0931C20.1312 19.0496 17.5464 20.9997 14.4997 20.9997C10.6339 20.9997 7.49967 17.8654 7.49967 13.9997C7.49967 10.1339 10.6339 6.99967 14.4997 6.99967C16.2841 6.99967 17.9075 7.67284 19.1436 8.77242L22.4435 5.47251C20.3598 3.53059 17.5727 2.33301 14.4997 2.33301C8.05676 2.33301 2.83301 7.55676 2.83301 13.9997C2.83301 20.4426 8.05676 25.6663 14.4997 25.6663C20.9426 25.6663 26.1663 20.4426 26.1663 13.9997C26.1663 13.2174 26.0858 12.4538 25.9394 11.7148Z" fill="#FFC107"/>
<path d="M4.17871 8.56943L8.01179 11.3805C9.04896 8.81267 11.5608 6.99967 14.5002 6.99967C16.2846 6.99967 17.908 7.67284 19.1441 8.77242L22.444 5.47251C20.3604 3.53059 17.5732 2.33301 14.5002 2.33301C10.019 2.33301 6.13288 4.86292 4.17871 8.56943Z" fill="#FF3D00"/>
<path d="M14.4995 25.6671C17.513 25.6671 20.2512 24.5138 22.3214 22.6384L18.7106 19.5829C17.5001 20.504 16.0206 21.002 14.4995 21.0004C11.465 21.0004 8.88845 19.0655 7.91778 16.3652L4.11328 19.2965C6.04411 23.0747 9.96528 25.6671 14.4995 25.6671Z" fill="#4CAF50"/>
<path d="M25.9398 11.7154H25V11.667H14.5V16.3337H21.0934C20.6333 17.6266 19.8045 18.7563 18.7093 19.5834L18.7111 19.5822L22.3219 22.6377C22.0664 22.8699 26.1667 19.8337 26.1667 14.0003C26.1667 13.2181 26.0862 12.4545 25.9398 11.7154Z" fill="#1976D2"/>
</svg>
